<svg width="64px" height="64px" viewBox="0 0 32 32" xmlns="http://www.w3.org/2000/svg" fill="#000000"><g id="SVGRepo_bgCarrier" stroke-width="0"></g><g id="SVGRepo_tracerCarrier" stroke-linecap="round" stroke-linejoin="round"></g><g id="SVGRepo_iconCarrier"> <defs> <style>.cls-1{fill:none;}.cls-2{fill:#f5f5f5;}.cls-3{fill:#7adeff;}</style> </defs> <title></title> <g id="diagram"> <rect class="cls-1" height="32" id="wrapper" width="32"></rect> <path class="cls-2" d="M16,29.89h-.54a13.91,13.91,0,0,1-.65-27.76,2,2,0,0,1,1.55.53A2,2,0,0,1,17,4.11V15H27.89a2,2,0,0,1,1.46.64,2,2,0,0,1,.53,1.55h0A13.89,13.89,0,0,1,16,29.89ZM15,4.11A11.9,11.9,0,0,0,4.12,16.44,12.1,12.1,0,0,0,15.56,27.88,11.89,11.89,0,0,0,27.89,17s0,0,0,0H17a2,2,0,0,1-2-2Z"></path> <rect class="cls-3" height="7.55" rx="1" ry="1" width="7.25" x="19.44" y="4.95"></rect> <path class="cls-2" d="M25.68,13.5H20.44a2,2,0,0,1-2-2V6a2,2,0,0,1,2-2h5.24a2,2,0,0,1,2,2V11.5A2,2,0,0,1,25.68,13.5Zm0-2v0ZM20.44,6V11.5h5.24V6Z"></path> </g> </g></svg>
